<?xml version="1.0" encoding="utf-8"?>
<!-- Generator: Adobe Illustrator 16.0.3, SVG Export Plug-In . SVG Version: 6.00 Build 0)  -->
<!DOCTYPE svg PUBLIC "-//W3C//DTD SVG 1.1//EN" "http://www.w3.org/Graphics/SVG/1.1/DTD/svg11.dtd">
<svg version="1.1" id="Layer_1" xmlns="http://www.w3.org/2000/svg" xmlns:xlink="http://www.w3.org/1999/xlink" x="0px" y="0px"
	 width="108px" height="72px" viewBox="0 0 108 72" enable-background="new 0 0 108 72" xml:space="preserve">
<g>
	
		<linearGradient id="SVGID_1_" gradientUnits="userSpaceOnUse" x1="4662.3994" y1="9.3711" x2="4767.3755" y2="27.8812" gradientTransform="matrix(-1 0 0 1 4770.5215 0)">
		<stop  offset="0" style="stop-color:#ACC500"/>
		<stop  offset="1" style="stop-color:#569420"/>
	</linearGradient>
	<path fill="url(#SVGID_1_)" d="M19.225,0.308c13.716,0.005,32.266,6.015,48.231,16.577c3.854,2.548,2.764,3.864-1.961,2.058
		C60.153,16.898,40.232,8.576,18.907,8.576c-9.025,0-9.822,2.926-8.894,5.153c3.557,8.534,23.64,18.675,41.758,18.667
		c16.003-0.003,34.04-6.785,51.146-25.363c1.36-1.478,3.308-2.191,4.277-1.218c1.079,1.08,0.129,2.979-0.485,3.917
		c-5.063,7.769-28.105,35.042-60.656,35.042h-0.009c-33.22,0-45.814-25.469-45.814-34.498C0.23,2.264,12.269,0.316,19.225,0.308z"/>
	<g>
		<path fill="#730000" d="M54.847,55.874c-1.956-1.548-4.883-2.348-8.77-2.348l0,0c-3.75,0-6.731,0.755-8.782,2.302
			c-2.052,1.543-3.097,3.909-3.094,6.833c-0.003,2.693,0.809,5.021,2.721,6.604c1.912,1.584,4.848,2.426,8.898,2.426h0.01
			c3.925,0,6.914-0.824,8.92-2.416c2.008-1.592,2.96-3.974,2.958-6.817C57.71,59.731,56.797,57.422,54.847,55.874z M49.987,66.979
			c-0.913,0.944-2.201,1.396-3.951,1.401c-1.643-0.004-2.969-0.457-3.932-1.387c-0.959-0.923-1.563-2.177-1.563-4.212
			c-0.004-2.226,0.581-3.582,1.514-4.546c0.934-0.967,2.215-1.409,3.858-1.415c1.604,0.002,2.945,0.429,3.92,1.351
			c0.975,0.925,1.615,2.207,1.615,4.369C51.449,64.709,50.902,66.031,49.987,66.979z"/>
		<path fill="#730000" d="M81.379,70.999c0.797-0.023,1.093,0.139,1.093-0.911v-7.964c0-2.595-0.554-4.976-2.363-6.455
			c-1.809-1.485-4.855-2.121-8.601-2.119c-3.636,0-6.734,0.597-8.63,2.088c-1.899,1.495-2.561,3.739-2.561,6.486v7.964
			c0,1.05,0.375,0.888,1.173,0.911h4.005c0.796-0.023,1.089,0.139,1.089-0.911c0-0.037,0-6.932,0-6.932
			c-0.004-2.241,0.162-3.934,0.965-4.895c0.803-0.958,2.204-1.26,3.793-1.268c1.53,0.006,2.929,0.302,3.784,1.155
			c1.247,1.251,1.079,4.885,1.079,4.885l-0.002,7.129c0,0.975,0.307,0.836,1.061,0.836H81.379z"/>
		<path fill="#730000" d="M30.183,62.23c-0.645-0.393-1.361-0.648-2.021-0.809c1.361-0.606,2.657-1.718,2.648-3.539
			c0.018-1.229-0.781-2.556-2.597-3.281c-1.812-0.742-4.763-1.003-9.027-1.003c-7.712,0-8.287,0.245-8.287,1.485v14.443
			c0,1.883,0.643,1.887,8.432,1.887c3.508,0,6.628-0.023,8.962-0.88c2.341-0.835,3.859-2.557,3.835-5.078
			C32.138,63.9,31.264,62.88,30.183,62.23z M20.196,56.629c0.597,0,2.499-0.023,3.216,0.206c0.868,0.28,1.311,1.001,1.311,1.553
			c0,0.565-0.153,1.163-0.697,1.587c-0.546,0.423-1.267,0.54-2.811,0.54c-1.411,0-2.682,0-3.306,0l0,0
			c-0.481,0-0.456-0.271-0.456-0.428v-3.013c0-0.158-0.025-0.445,0.456-0.445C17.91,56.629,19.657,56.629,20.196,56.629z
			 M24.378,67.656c-0.915,0.448-2.192,0.419-3.718,0.417c-0.407,0-2.754,0-2.893,0c-0.145,0-0.313-0.113-0.313-0.348v-3.845
			c0-0.159-0.025-0.46,0.456-0.46c0.837-0.006,2.357,0,2.745,0c1.543,0,2.596,0.037,3.5,0.34c0.9,0.315,1.51,1.071,1.51,1.742
			C25.665,66.666,25.282,67.197,24.378,67.656z"/>
	</g>
</g>
</svg>
