<?xml version="1.0" encoding="utf-8"?>
<!-- Generator: Adobe Illustrator 16.0.3, SVG Export Plug-In . SVG Version: 6.00 Build 0)  -->
<!DOCTYPE svg PUBLIC "-//W3C//DTD SVG 1.1//EN" "http://www.w3.org/Graphics/SVG/1.1/DTD/svg11.dtd">
<svg version="1.1" id="Layer_1" xmlns="http://www.w3.org/2000/svg" xmlns:xlink="http://www.w3.org/1999/xlink" x="0px" y="0px"
	 width="520.346px" height="93.715px" viewBox="0 0 520.346 93.715" enable-background="new 0 0 520.346 93.715"
	 xml:space="preserve">
<g>
	<path fill="#57B04B" d="M0,0.322h36.738c0,0,33.372,50.42,34.365,51.776c0.996,1.352,1.119,0,1.119,0
		c-1.538-7.808-3.208-11.312-3.208-23.78V0.322h36.598v93.393H69.015c0,0-32.688-47.73-33.678-49.049c-0.983-1.318-1.112,0-1.112,0
		c1.257,6.445,2.373,7.523,2.373,18.703v30.346H0V0.322z"/>
	<path fill="#57B04B" d="M163.307,59.896l4.985-18.955c1.081-3.829,1.822-9.354,1.822-9.354c0.155-0.844,1.324-0.844,1.529,0.041
		c0.236,1.307,0.826,5.273,1.938,9.231l5.092,19.037H163.307z M156.457,82.072h28.928l3.489,11.643h40.506L191.807,0.322h-42.328
		l-36.602,93.393h40.51L156.457,82.072z"/>
	<path fill="#57B04B" d="M325.796,0.322l-40.79,93.393h-32.414L211.805,0.322h39.954l13.97,42.486
		c1.528,4.583,2.65,14.646,2.65,14.646c0.262,0.794,1.204,0.735,1.352,0c0,0,1.119-10.063,2.657-14.646l13.452-42.486H325.796z"/>
	<path fill="#57B04B" d="M333.756,0.322h70.834V25.84h-32.275v8.912h29.48v24.281h-29.48v9.164h33.396v25.518h-71.953L333.756,0.322
		L333.756,0.322z"/>
	<path fill="#57B04B" d="M458.725,25.518h2.944c6.56,0,12.29,0.864,12.29,8.051c0,6.932-6.294,7.799-12.577,7.799h-2.657V25.518z
		 M421.289,93.715h37.437V63.416c0,0,0.24-1.063,0.958,0l16.515,30.299h44.147l-22.919-30.674c-2.099-2.719-5.638-5.048-6.422-5.566
		c-0.785-0.527,0-0.75,0-0.75c14.256-4.209,20.401-10.147,20.401-24.274C511.406,8.918,491.273,0,467.528,0h-46.239V93.715z"/>
</g>
</svg>
