<?xml version="1.0" encoding="utf-8"?>
<!-- Generator: Adobe Illustrator 16.0.3, SVG Export Plug-In . SVG Version: 6.00 Build 0)  -->
<!DOCTYPE svg PUBLIC "-//W3C//DTD SVG 1.1//EN" "http://www.w3.org/Graphics/SVG/1.1/DTD/svg11.dtd">
<svg version="1.1" id="Layer_1" xmlns="http://www.w3.org/2000/svg" xmlns:xlink="http://www.w3.org/1999/xlink" x="0px" y="0px"
	 width="520.346px" height="93.715px" viewBox="0 0 520.346 93.715" enable-background="new 0 0 520.346 93.715"
	 xml:space="preserve">
<g>
	<path fill="none" d="M395.912,45.871c-6.5,0-8.755,3.553-8.755,7.974v16.144c0,4.435,2.255,7.997,8.755,7.997
		c6.489,0,8.785-3.563,8.785-7.997V53.845C404.698,49.424,402.402,45.871,395.912,45.871z"/>
	<path fill="none" d="M333.632,45.871c-6.51,0-8.766,3.553-8.766,7.974v16.144c0,4.435,2.256,7.997,8.766,7.997
		c6.492,0,8.766-3.563,8.766-7.997V53.845C342.398,49.424,340.124,45.871,333.632,45.871z"/>
	<path fill="none" d="M272.116,45.871c-3.903,0-6.717,1.28-9.568,2.583v29.503c2.731,0.26,4.298,0.26,6.892,0.26
		c9.367,0,10.652-4.289,10.652-10.279V53.845C280.092,49.424,278.623,45.871,272.116,45.871z"/>
	<path fill="none" d="M86.392,74.97c0,3.494,1.649,5.31,5.29,5.31c3.905,0,6.216-1.272,9.066-2.579v-6.999H92.21
		C88.168,70.701,86.392,71.453,86.392,74.97z"/>
	<path fill="none" d="M208.906,44.261c-6.499,0-7.983,3.568-7.983,7.986v2.482h15.957v-2.482
		C216.88,47.829,215.397,44.261,208.906,44.261z"/>
	<path fill="#3B5998" d="M119.937,56.332v11.182c0,15.607,8.167,26.413,28.713,26.413c4.788,0,10.451-0.513,19.145-2.461V75.896
		c-9.925,1.709-12.775,2.089-17.551,2.089c-8.579,0-11.17-1.9-11.17-9.186V55.021c0-7.285,2.592-9.177,11.17-9.177
		c4.776,0,7.626,0.374,17.551,2.076V32.358c-8.694-1.957-14.357-2.472-19.145-2.472C128.104,29.887,119.937,40.71,119.937,56.332z"
		/>
	<path fill="#3B5998" d="M79.785,30.786H61.898l-1.6,15.961h16.363c10.008,0,10.753,1.911,10.753,8.418v2.756H74.186
		c-12.997,0-20.262,4.55-20.262,17.3c0,10.806,6.228,18.62,17.924,18.62c4.288,0,10.788-0.654,18.07-4.688l0.691,4.033h15.948
		V55.293C106.558,37.723,101.744,30.786,79.785,30.786z M87.414,77.7c-2.85,1.307-5.161,2.579-9.066,2.579
		c-3.641,0-5.29-1.815-5.29-5.31c0-3.517,1.776-4.269,5.818-4.269h8.538V77.7z"/>
	<path fill="#3B5998" d="M28.699,30.786l0.023-7.99c0-4.164,0.394-6.394,6.365-6.394h7.982V0.438H30.3
		c-15.339,0-20.736,7.743-20.736,20.765v9.583H0v15.961h9.563v46.321h19.136V46.748h12.769l1.692-15.961H28.699z"/>
	<path fill="#3B5998" d="M351.362,29.927c-22.49,0-27.964,12.624-27.964,25.645v12.565c0,13.015,5.474,25.635,27.964,25.635
		c22.48,0,27.854-12.62,27.854-25.635V55.572C379.215,42.551,373.842,29.927,351.362,29.927z M360.064,69.988
		c0,4.435-2.273,7.997-8.766,7.997c-6.51,0-8.766-3.563-8.766-7.997V53.845c0-4.421,2.256-7.974,8.766-7.974
		c6.492,0,8.766,3.553,8.766,7.974V69.988z"/>
	<polygon fill="#3B5998" points="520.346,30.786 499.609,30.786 482.073,58.584 482.073,2.038 462.935,5.23 462.935,93.068 
		482.073,93.068 482.073,63.792 499.609,93.068 520.346,93.068 501.2,61.122 	"/>
	<path fill="#3B5998" d="M421.976,29.927c-22.491,0-27.965,12.624-27.965,25.645v12.565c0,13.015,5.474,25.635,27.965,25.635
		c22.477,0,27.855-12.62,27.855-25.635V55.572C449.831,42.551,444.452,29.927,421.976,29.927z M430.698,69.988
		c0,4.435-2.296,7.997-8.785,7.997c-6.5,0-8.755-3.563-8.755-7.997V53.845c0-4.421,2.255-7.974,8.755-7.974
		c6.489,0,8.785,3.553,8.785,7.974V69.988z"/>
	<path fill="#3B5998" d="M290.238,29.887c-4.87,0-10.222,0.78-14.355,2.315V2.038L256.751,5.23v86.235
		c10.411,1.603,15.944,2.432,25.375,2.432c26.12,0,30.432-11.003,30.432-26.09V52.247C312.558,38.464,309.371,29.887,290.238,29.887
		z M293.426,67.937c0,5.99-1.285,10.279-10.652,10.279c-2.594,0-4.16,0-6.892-0.26V48.453c2.852-1.303,5.665-2.583,9.568-2.583
		c6.507,0,7.976,3.553,7.976,7.974V67.937z"/>
	<path fill="#3B5998" d="M213.24,29.887c-21.055,0-27.118,11.187-27.118,24.843v12.784c0,15.607,8.171,26.413,28.719,26.413
		c9.375,0,14.354-0.513,23.908-2.461V75.896c-9.907,1.709-14.612,2.089-22.322,2.089c-8.576,0-11.17-1.9-11.17-9.186v-1.286h35.093
		V54.729C240.349,40.943,234.294,29.887,213.24,29.887z M221.213,54.729h-15.957v-2.482c0-4.418,1.485-7.986,7.983-7.986
		c6.491,0,7.974,3.568,7.974,7.986V54.729z"/>
</g>
</svg>
